<?xml version="1.0" encoding="UTF-8" standalone="no"?>
<svg width="175px" height="37px" viewBox="0 0 175 37" version="1.1" xmlns="http://www.w3.org/2000/svg" xmlns:xlink="http://www.w3.org/1999/xlink" xmlns:sketch="http://www.bohemiancoding.com/sketch/ns">
    <!-- Generator: Sketch 3.4.2 (15855) - http://www.bohemiancoding.com/sketch -->
    <title>asdfasdf</title>
    <desc>Created with Sketch.</desc>
    <defs></defs>
    <g id="Page-1" stroke="none" stroke-width="1" fill="none" fill-rule="evenodd" sketch:type="MSPage">
        <path d="M70.312,10.76 L70.312,27.848 C70.312,29.528 68.92,33.176 65.032,33.176 C60.856,33.176 61,28.088 61,27.416 L61,10.76 L58.12,10.76 L58.12,27.896 C58.12,31.832 59.512,35.48 64.504,35.48 C67.192,35.48 68.92,34.376 70.6,32.312 L70.696,32.312 L70.696,35 L73.192,35 L73.192,10.76 L70.312,10.76 Z M82.12,19.784 C82.12,14.36 84.76,12.584 87.352,12.584 C90.712,12.584 91.816,15.224 91.816,18.056 L91.816,35 L94.696,35 L94.696,17.912 C94.696,14.744 94.072,10.28 88.072,10.28 C85.48,10.28 83.608,11.72 82.216,13.736 L82.12,13.736 L82.12,10.76 L79.24,10.76 L79.24,35 L82.12,35 L82.12,19.784 Z M104.392,35 L104.392,10.76 L101.512,10.76 L101.512,35 L104.392,35 Z M104.728,3.992 L104.728,0.344 L101.176,0.344 L101.176,3.992 L104.728,3.992 Z M112.936,13.064 L112.936,30.392 C112.936,33.368 114.088,35.096 117.976,35.096 C118.888,35.096 119.848,35.048 120.712,34.952 L120.712,32.456 C120.088,32.552 119.416,32.6 118.456,32.6 C116.152,32.6 115.816,31.832 115.816,28.616 L115.816,13.064 L120.712,13.064 L120.712,10.76 L115.816,10.76 L115.816,4.52 L112.936,5.768 L112.936,10.76 L109.048,10.76 L109.048,13.064 L112.936,13.064 Z M140.632,23.48 C140.632,16.28 140.632,10.28 132.28,10.28 C126.856,10.28 123.928,13.496 123.928,20.504 L123.928,26.456 C123.928,33.8 128.104,35.48 132.28,35.48 C137.128,35.48 140.296,33.464 140.632,27.608 L137.608,27.608 C137.656,30.872 135.88,33.176 132.28,33.176 C127.72,33.176 126.808,28.712 126.808,25.352 L126.808,23.48 L140.632,23.48 Z M126.808,21.176 C126.808,15.8 127.672,12.584 132.28,12.584 C136.888,12.584 137.752,15.8 137.752,21.176 L126.808,21.176 Z M159.448,28.616 C159.448,20.504 148.552,22.136 148.552,16.088 C148.552,13.928 150.184,12.584 152.248,12.584 C155.512,12.584 156.328,14.216 156.472,17.288 L159.304,17.288 C159.304,13.592 157.768,10.28 152.968,10.28 C148.744,10.28 145.672,11.864 145.672,16.328 C145.672,24.344 156.568,22.712 156.568,29.048 C156.568,31.736 155.224,33.32 152.44,33.32 C148.744,33.32 147.976,31.112 147.976,27.8 L145.048,27.8 C145,32.936 147.064,35.48 152.296,35.48 C156.808,35.48 159.448,33.176 159.448,28.616 L159.448,28.616 Z M166.264,13.064 L166.264,30.392 C166.264,33.368 167.416,35.096 171.304,35.096 C172.216,35.096 173.176,35.048 174.04,34.952 L174.04,32.456 C173.416,32.552 172.744,32.6 171.784,32.6 C169.48,32.6 169.144,31.832 169.144,28.616 L169.144,13.064 L174.04,13.064 L174.04,10.76 L169.144,10.76 L169.144,4.52 L166.264,5.768 L166.264,10.76 L162.376,10.76 L162.376,13.064 L166.264,13.064 Z" id="unitest" fill="#000000" sketch:type="MSShapeGroup"></path>
        <g id="Polygon-1-+-Polygon-1" sketch:type="MSLayerGroup" transform="translate(23.000000, 23.000000) rotate(-270.000000) translate(-23.000000, -23.000000) translate(9.000000, 0.000000)">
            <polygon id="Polygon-1" fill="#7ED321" sketch:type="MSShapeGroup" points="13.7820234 0 25.7176059 6.89101172 25.7176059 20.6730352 13.7820234 27.5640469 1.84644103 20.6730352 1.84644103 6.89101172 "></polygon>
            <polygon id="Polygon-1" fill="#000000" sketch:type="MSShapeGroup" points="13.7820234 17.6702851 25.7176059 24.5612969 25.7176059 38.3433203 13.7820234 45.234332 1.84644103 38.3433203 1.84644103 24.5612969 "></polygon>
        </g>
    </g>
</svg>